ffmpeg started on 2025-05-12 at 13:08:01
Report written to "D:\Convert\FFMetrics\reports\psnr_report-6.txt"
Log level: 32
Command line:
ffmpeg -hide_banner -nostdin -i "G:\\\xc0\xed\xe8\xec\xe5\\\xce\xed\xe3\xee\xe8\xed\xe3\xe8\\!_35_\xcb\xe5\xf2\xee_2024\\DreamCast\\\xc0\xeb\xff \xe8\xed\xee\xe3\xe4\xe0 \xea\xee\xea\xe5\xf2\xed\xe8\xf7\xe0\xe5\xf2 \xf1\xee \xec\xed\xee\xe9 \xef\xee-\xf0\xf3\xf1\xf1\xea\xe8\\[DC] Roshidere - 05_Telegram_HEVC.mkv" -i "G:\\\xc0\xed\xe8\xec\xe5\\\xce\xed\xe3\xee\xe8\xed\xe3\xe8\\!_35_\xcb\xe5\xf2\xee_2024\\DreamCast\\\xc0\xeb\xff \xe8\xed\xee\xe3\xe4\xe0 \xea\xee\xea\xe5\xf2\xed\xe8\xf7\xe0\xe5\xf2 \xf1\xee \xec\xed\xee\xe9 \xef\xee-\xf0\xf3\xf1\xf1\xea\xe8\\[DC] Roshidere - 05_Telegram.mp4" -lavfi "[0:v]settb=AVTB,setpts=PTS-STARTPTS,format=pix_fmts=yuv420p10,fps=24000/1001,scale=1920:1080:flags=bicubic[main];[1:v]settb=AVTB,setpts=PTS-STARTPTS,format=pix_fmts=yuv420p,fps=24000/1001,scale=1920:1080:flags=bicubic[ref];[main][ref]psnr=eof_action=endall:stats_file='D\\:/Convert/FFMetrics/logs/psnr_logfile-6.txt'" -f null -
Input #0, matroska,webm, from 'G:\Аниме\Онгоинги\!_35_Лето_2024\DreamCast\Аля иногда кокетничает со мной по-русски\[DC] Roshidere - 05_Telegram_HEVC.mkv':
  Metadata:
    COMPATIBLE_BRANDS: isomiso2avc1mp41
    MAJOR_BRAND     : isom
    MINOR_VERSION   : 512
    ENCODER         : Lavf61.7.100
  Duration: 00:24:17.58, start: -0.021000, bitrate: 999 kb/s
  Stream #0:0: Video: hevc (Main 10), yuv420p10le(tv, bt709, progressive), 1920x1080 [SAR 1:1 DAR 16:9], 23.98 fps, 23.98 tbr, 1k tbn (default)
      Metadata:
        HANDLER_NAME    : VideoHandler
        VENDOR_ID       : [0][0][0][0]
        ENCODER         : Lavc61.19.100 libx265
        BPS             : 803198
        DURATION        : 00:24:16.538708333
        NUMBER_OF_FRAMES: 34922
        NUMBER_OF_BYTES : 146236181
        _STATISTICS_WRITING_APP: mkvpropedit v66.0.0 ('Josie') 64-bit
        _STATISTICS_WRITING_DATE_UTC: 2025-05-06 12:06:12
        _STATISTICS_TAGS: BPS DURATION NUMBER_OF_FRAMES NUMBER_OF_BYTES
  Stream #0:1: Audio: aac (LC), 48000 Hz, stereo, fltp (default)
      Metadata:
        HANDLER_NAME    : SoundHandler
        VENDOR_ID       : [0][0][0][0]
        ENCODER         : Lavc61.19.100 aac
        BPS             : 192856
        DURATION        : 00:24:17.578000000
        NUMBER_OF_FRAMES: 68325
        NUMBER_OF_BYTES : 35137858
        _STATISTICS_WRITING_APP: mkvpropedit v66.0.0 ('Josie') 64-bit
        _STATISTICS_WRITING_DATE_UTC: 2025-05-06 12:06:12
        _STATISTICS_TAGS: BPS DURATION NUMBER_OF_FRAMES NUMBER_OF_BYTES
Input #1, mov,mp4,m4a,3gp,3g2,mj2, from 'G:\Аниме\Онгоинги\!_35_Лето_2024\DreamCast\Аля иногда кокетничает со мной по-русски\[DC] Roshidere - 05_Telegram.mp4':
  Metadata:
    major_brand     : isom
    minor_version   : 512
    compatible_brands: isomiso2avc1mp41
    encoder         : Lavf61.1.100
  Duration: 00:24:17.53, start: 0.000000, bitrate: 3744 kb/s
  Stream #1:0[0x1](und): Video: h264 (High) (avc1 / 0x31637661), yuv420p(tv, bt709, progressive), 1920x1080 [SAR 1:1 DAR 16:9], 3598 kb/s, 23.98 fps, 23.98 tbr, 24k tbn (default)
      Metadata:
        handler_name    : VideoHandler
        vendor_id       : [0][0][0][0]
        encoder         : Lavc61.3.100 h264_qsv
  Stream #1:1[0x2](und): Audio: aac (HE-AACv2) (mp4a / 0x6134706D), 48000 Hz, stereo, fltp, 144 kb/s (default)
      Metadata:
        handler_name    : SoundHandler
        vendor_id       : [0][0][0][0]
Stream mapping:
  Stream #0:0 (hevc) -> settb:default
  Stream #1:0 (h264) -> settb:default
  psnr:default -> Stream #0:0 (wrapped_avframe)
  Stream #0:1 -> #0:1 (aac (native) -> pcm_s16le (native))
Output #0, null, to 'pipe:':
  Metadata:
    COMPATIBLE_BRANDS: isomiso2avc1mp41
    MAJOR_BRAND     : isom
    MINOR_VERSION   : 512
    encoder         : Lavf61.7.100
  Stream #0:0: Video: wrapped_avframe, yuv420p10le(tv, bt709, progressive), 1920x1080 [SAR 1:1 DAR 16:9], q=2-31, 200 kb/s, 23.98 fps, 23.98 tbn
      Metadata:
        encoder         : Lavc61.19.100 wrapped_avframe
  Stream #0:1: Audio: pcm_s16le, 48000 Hz, stereo, s16, 1536 kb/s (default)
      Metadata:
        HANDLER_NAME    : SoundHandler
        VENDOR_ID       : [0][0][0][0]
        _STATISTICS_TAGS: BPS DURATION NUMBER_OF_FRAMES NUMBER_OF_BYTES
        BPS             : 192856
        DURATION        : 00:24:17.578000000
        NUMBER_OF_FRAMES: 68325
        NUMBER_OF_BYTES : 35137858
        _STATISTICS_WRITING_APP: mkvpropedit v66.0.0 ('Josie') 64-bit
        _STATISTICS_WRITING_DATE_UTC: 2025-05-06 12:06:12
        encoder         : Lavc61.19.100 pcm_s16le
frame=  175 fps=0.0 q=-0.0 size=N/A time=00:00:07.29 bitrate=N/A speed=14.2x    frame=  418 fps=411 q=-0.0 size=N/A time=00:00:17.43 bitrate=N/A speed=17.1x    frame=  686 fps=445 q=-0.0 size=N/A time=00:00:28.61 bitrate=N/A speed=18.6x    frame=  960 fps=465 q=-0.0 size=N/A time=00:00:40.04 bitrate=N/A speed=19.4x    frame= 1195 fps=465 q=-0.0 size=N/A time=00:00:49.84 bitrate=N/A speed=19.4x    frame= 1438 fps=465 q=-0.0 size=N/A time=00:00:59.97 bitrate=N/A speed=19.4x    frame= 1697 fps=471 q=-0.0 size=N/A time=00:01:10.77 bitrate=N/A speed=19.6x    frame= 1936 fps=471 q=-0.0 size=N/A time=00:01:20.74 bitrate=N/A speed=19.6x    frame= 2194 fps=473 q=-0.0 size=N/A time=00:01:31.50 bitrate=N/A speed=19.7x    frame= 2455 fps=477 q=-0.0 size=N/A time=00:01:42.39 bitrate=N/A speed=19.9x    frame= 2681 fps=473 q=-0.0 size=N/A time=00:01:51.82 bitrate=N/A speed=19.7x    frame= 2860 fps=463 q=-0.0 size=N/A time=00:01:59.28 bitrate=N/A speed=19.3x    frame= 3070 fps=458 q=-0.0 size=N/A time=00:02:08.04 bitrate=N/A speed=19.1x    frame= 3257 fps=452 q=-0.0 size=N/A time=00:02:15.84 bitrate=N/A speed=18.8x    frame= 3467 fps=448 q=-0.0 size=N/A time=00:02:24.60 bitrate=N/A speed=18.7x    frame= 3691 fps=447 q=-0.0 size=N/A time=00:02:33.94 bitrate=N/A speed=18.7x    frame= 3883 fps=443 q=-0.0 size=N/A time=00:02:41.95 bitrate=N/A speed=18.5x    frame= 4055 fps=437 q=-0.0 size=N/A time=00:02:49.12 bitrate=N/A speed=18.2x    frame= 4213 fps=430 q=-0.0 size=N/A time=00:02:55.71 bitrate=N/A speed=  18x    frame= 4414 fps=428 q=-0.0 size=N/A time=00:03:04.10 bitrate=N/A speed=17.9x    frame= 4598 fps=425 q=-0.0 size=N/A time=00:03:11.77 bitrate=N/A speed=17.7x    frame= 4854 fps=428 q=-0.0 size=N/A time=00:03:22.45 bitrate=N/A speed=17.8x    frame= 5056 fps=427 q=-0.0 size=N/A time=00:03:30.87 bitrate=N/A speed=17.8x    frame= 5306 fps=429 q=-0.0 size=N/A time=00:03:41.30 bitrate=N/A speed=17.9x    frame= 5565 fps=432 q=-0.0 size=N/A time=00:03:52.10 bitrate=N/A speed=  18x    frame= 5766 fps=430 q=-0.0 size=N/A time=00:04:00.49 bitrate=N/A speed=17.9x    frame= 6027 fps=433 q=-0.0 size=N/A time=00:04:11.37 bitrate=N/A speed=18.1x    frame= 6281 fps=435 q=-0.0 size=N/A time=00:04:21.97 bitrate=N/A speed=18.1x    frame= 6537 fps=437 q=-0.0 size=N/A time=00:04:32.64 bitrate=N/A speed=18.2x    frame= 6801 fps=440 q=-0.0 size=N/A time=00:04:43.65 bitrate=N/A speed=18.3x    frame= 7035 fps=440 q=-0.0 size=N/A time=00:04:53.41 bitrate=N/A speed=18.4x    frame= 7267 fps=441 q=-0.0 size=N/A time=00:05:03.09 bitrate=N/A speed=18.4x    frame= 7529 fps=443 q=-0.0 size=N/A time=00:05:14.02 bitrate=N/A speed=18.5x    frame= 7789 fps=444 q=-0.0 size=N/A time=00:05:24.86 bitrate=N/A speed=18.5x    frame= 8055 fps=447 q=-0.0 size=N/A time=00:05:35.96 bitrate=N/A speed=18.6x    frame= 8310 fps=448 q=-0.0 size=N/A time=00:05:46.59 bitrate=N/A speed=18.7x    frame= 8542 fps=448 q=-0.0 size=N/A time=00:05:56.27 bitrate=N/A speed=18.7x    frame= 8795 fps=449 q=-0.0 size=N/A time=00:06:06.82 bitrate=N/A speed=18.7x    frame= 9061 fps=451 q=-0.0 size=N/A time=00:06:17.91 bitrate=N/A speed=18.8x    frame= 9308 fps=451 q=-0.0 size=N/A time=00:06:28.22 bitrate=N/A speed=18.8x    frame= 9550 fps=452 q=-0.0 size=N/A time=00:06:38.31 bitrate=N/A speed=18.8x    frame= 9821 fps=454 q=-0.0 size=N/A time=00:06:49.61 bitrate=N/A speed=18.9x    frame=10064 fps=454 q=-0.0 size=N/A time=00:06:59.75 bitrate=N/A speed=18.9x    frame=10326 fps=455 q=-0.0 size=N/A time=00:07:10.68 bitrate=N/A speed=  19x    frame=10578 fps=456 q=-0.0 size=N/A time=00:07:21.19 bitrate=N/A speed=  19x    frame=10764 fps=454 q=-0.0 size=N/A time=00:07:28.94 bitrate=N/A speed=18.9x    frame=11008 fps=454 q=-0.0 size=N/A time=00:07:39.12 bitrate=N/A speed=  19x    frame=11250 fps=455 q=-0.0 size=N/A time=00:07:49.21 bitrate=N/A speed=  19x    frame=11491 fps=455 q=-0.0 size=N/A time=00:07:59.27 bitrate=N/A speed=  19x    frame=11759 fps=456 q=-0.0 size=N/A time=00:08:10.44 bitrate=N/A speed=  19x    frame=11990 fps=456 q=-0.0 size=N/A time=00:08:20.12 bitrate=N/A speed=  19x    frame=12258 fps=457 q=-0.0 size=N/A time=00:08:31.26 bitrate=N/A speed=19.1x    frame=12521 fps=458 q=-0.0 size=N/A time=00:08:42.23 bitrate=N/A speed=19.1x    frame=12783 fps=459 q=-0.0 size=N/A time=00:08:53.15 bitrate=N/A speed=19.2x    frame=13038 fps=460 q=-0.0 size=N/A time=00:09:03.79 bitrate=N/A speed=19.2x    frame=13309 fps=461 q=-0.0 size=N/A time=00:09:15.09 bitrate=N/A speed=19.2x    frame=13582 fps=462 q=-0.0 size=N/A time=00:09:26.48 bitrate=N/A speed=19.3x    frame=13854 fps=463 q=-0.0 size=N/A time=00:09:37.82 bitrate=N/A speed=19.3x    frame=14131 fps=465 q=-0.0 size=N/A time=00:09:49.38 bitrate=N/A speed=19.4x    frame=14392 fps=465 q=-0.0 size=N/A time=00:10:00.26 bitrate=N/A speed=19.4x    frame=14674 fps=467 q=-0.0 size=N/A time=00:10:12.02 bitrate=N/A speed=19.5x    frame=14939 fps=467 q=-0.0 size=N/A time=00:10:23.08 bitrate=N/A speed=19.5x    frame=15196 fps=468 q=-0.0 size=N/A time=00:10:33.79 bitrate=N/A speed=19.5x    frame=15420 fps=467 q=-0.0 size=N/A time=00:10:43.14 bitrate=N/A speed=19.5x    frame=15682 fps=468 q=-0.0 size=N/A time=00:10:54.07 bitrate=N/A speed=19.5x    frame=15938 fps=469 q=-0.0 size=N/A time=00:11:04.74 bitrate=N/A speed=19.5x    frame=16199 fps=469 q=-0.0 size=N/A time=00:11:15.63 bitrate=N/A speed=19.6x    frame=16464 fps=470 q=-0.0 size=N/A time=00:11:26.68 bitrate=N/A speed=19.6x    frame=16732 fps=470 q=-0.0 size=N/A time=00:11:37.86 bitrate=N/A speed=19.6x    frame=16993 fps=471 q=-0.0 size=N/A time=00:11:48.74 bitrate=N/A speed=19.6x    frame=17214 fps=470 q=-0.0 size=N/A time=00:11:57.96 bitrate=N/A speed=19.6x    frame=17481 fps=471 q=-0.0 size=N/A time=00:12:09.10 bitrate=N/A speed=19.6x    frame=17719 fps=471 q=-0.0 size=N/A time=00:12:19.02 bitrate=N/A speed=19.6x    frame=17957 fps=471 q=-0.0 size=N/A time=00:12:28.95 bitrate=N/A speed=19.6x    frame=18214 fps=471 q=-0.0 size=N/A time=00:12:39.67 bitrate=N/A speed=19.6x    frame=18457 fps=471 q=-0.0 size=N/A time=00:12:49.81 bitrate=N/A speed=19.6x    frame=18734 fps=472 q=-0.0 size=N/A time=00:13:01.36 bitrate=N/A speed=19.7x    frame=18985 fps=472 q=-0.0 size=N/A time=00:13:11.83 bitrate=N/A speed=19.7x    frame=19248 fps=473 q=-0.0 size=N/A time=00:13:22.80 bitrate=N/A speed=19.7x    frame=19496 fps=473 q=-0.0 size=N/A time=00:13:33.14 bitrate=N/A speed=19.7x    frame=19740 fps=473 q=-0.0 size=N/A time=00:13:43.32 bitrate=N/A speed=19.7x    frame=19991 fps=473 q=-0.0 size=N/A time=00:13:53.79 bitrate=N/A speed=19.7x    frame=20252 fps=473 q=-0.0 size=N/A time=00:14:04.67 bitrate=N/A speed=19.7x    frame=20479 fps=473 q=-0.0 size=N/A time=00:14:14.14 bitrate=N/A speed=19.7x    frame=20731 fps=473 q=-0.0 size=N/A time=00:14:24.65 bitrate=N/A speed=19.7x    frame=20946 fps=472 q=-0.0 size=N/A time=00:14:33.62 bitrate=N/A speed=19.7x    frame=21191 fps=472 q=-0.0 size=N/A time=00:14:43.84 bitrate=N/A speed=19.7x    frame=21455 fps=473 q=-0.0 size=N/A time=00:14:54.85 bitrate=N/A speed=19.7x    frame=21717 fps=473 q=-0.0 size=N/A time=00:15:05.77 bitrate=N/A speed=19.7x    frame=21969 fps=473 q=-0.0 size=N/A time=00:15:16.29 bitrate=N/A speed=19.7x    frame=22202 fps=473 q=-0.0 size=N/A time=00:15:26.00 bitrate=N/A speed=19.7x    frame=22473 fps=474 q=-0.0 size=N/A time=00:15:37.31 bitrate=N/A speed=19.8x    frame=22729 fps=474 q=-0.0 size=N/A time=00:15:47.98 bitrate=N/A speed=19.8x    frame=22990 fps=474 q=-0.0 size=N/A time=00:15:58.87 bitrate=N/A speed=19.8x    frame=23215 fps=474 q=-0.0 size=N/A time=00:16:08.25 bitrate=N/A speed=19.8x    frame=23448 fps=474 q=-0.0 size=N/A time=00:16:17.97 bitrate=N/A speed=19.8x    frame=23701 fps=474 q=-0.0 size=N/A time=00:16:28.52 bitrate=N/A speed=19.8x    frame=23968 fps=474 q=-0.0 size=N/A time=00:16:39.70 bitrate=N/A speed=19.8x    frame=24237 fps=475 q=-0.0 size=N/A time=00:16:50.88 bitrate=N/A speed=19.8x    frame=24500 fps=475 q=-0.0 size=N/A time=00:17:01.85 bitrate=N/A speed=19.8x    frame=24735 fps=475 q=-0.0 size=N/A time=00:17:11.65 bitrate=N/A speed=19.8x    frame=24996 fps=475 q=-0.0 size=N/A time=00:17:22.54 bitrate=N/A speed=19.8x    frame=25263 fps=476 q=-0.0 size=N/A time=00:17:33.67 bitrate=N/A speed=19.8x    frame=25525 fps=476 q=-0.0 size=N/A time=00:17:44.60 bitrate=N/A speed=19.9x    frame=25800 fps=477 q=-0.0 size=N/A time=00:17:56.07 bitrate=N/A speed=19.9x    frame=26045 fps=477 q=-0.0 size=N/A time=00:18:06.29 bitrate=N/A speed=19.9x    frame=26320 fps=477 q=-0.0 size=N/A time=00:18:17.76 bitrate=N/A speed=19.9x    frame=26591 fps=477 q=-0.0 size=N/A time=00:18:29.06 bitrate=N/A speed=19.9x    frame=26800 fps=477 q=-0.0 size=N/A time=00:18:37.78 bitrate=N/A speed=19.9x    frame=27090 fps=478 q=-0.0 size=N/A time=00:18:49.87 bitrate=N/A speed=19.9x    frame=27322 fps=477 q=-0.0 size=N/A time=00:18:59.55 bitrate=N/A speed=19.9x    frame=27558 fps=477 q=-0.0 size=N/A time=00:19:09.39 bitrate=N/A speed=19.9x    frame=27796 fps=477 q=-0.0 size=N/A time=00:19:19.32 bitrate=N/A speed=19.9x    frame=28051 fps=477 q=-0.0 size=N/A time=00:19:29.96 bitrate=N/A speed=19.9x    frame=28298 fps=477 q=-0.0 size=N/A time=00:19:40.26 bitrate=N/A speed=19.9x    frame=28566 fps=478 q=-0.0 size=N/A time=00:19:51.44 bitrate=N/A speed=19.9x    frame=28839 fps=478 q=-0.0 size=N/A time=00:20:02.82 bitrate=N/A speed=19.9x    frame=29086 fps=478 q=-0.0 size=N/A time=00:20:13.12 bitrate=N/A speed=19.9x    frame=29360 fps=478 q=-0.0 size=N/A time=00:20:24.55 bitrate=N/A speed=  20x    frame=29615 fps=479 q=-0.0 size=N/A time=00:20:35.19 bitrate=N/A speed=  20x    frame=29881 fps=479 q=-0.0 size=N/A time=00:20:46.28 bitrate=N/A speed=  20x    frame=30130 fps=479 q=-0.0 size=N/A time=00:20:56.67 bitrate=N/A speed=  20x    frame=30389 fps=479 q=-0.0 size=N/A time=00:21:07.47 bitrate=N/A speed=  20x    frame=30638 fps=479 q=-0.0 size=N/A time=00:21:17.85 bitrate=N/A speed=  20x    frame=30914 fps=480 q=-0.0 size=N/A time=00:21:29.37 bitrate=N/A speed=  20x    frame=31157 fps=480 q=-0.0 size=N/A time=00:21:39.50 bitrate=N/A speed=  20x    frame=31445 fps=480 q=-0.0 size=N/A time=00:21:51.51 bitrate=N/A speed=  20x    frame=31707 fps=480 q=-0.0 size=N/A time=00:22:02.44 bitrate=N/A speed=  20x    frame=31982 fps=481 q=-0.0 size=N/A time=00:22:13.91 bitrate=N/A speed=20.1x    frame=32250 fps=481 q=-0.0 size=N/A time=00:22:25.09 bitrate=N/A speed=20.1x    frame=32510 fps=481 q=-0.0 size=N/A time=00:22:35.93 bitrate=N/A speed=20.1x    frame=32776 fps=482 q=-0.0 size=N/A time=00:22:47.03 bitrate=N/A speed=20.1x    frame=32987 fps=481 q=-0.0 size=N/A time=00:22:55.83 bitrate=N/A speed=20.1x    frame=33213 fps=481 q=-0.0 size=N/A time=00:23:05.25 bitrate=N/A speed=  20x    frame=33425 fps=480 q=-0.0 size=N/A time=00:23:14.10 bitrate=N/A speed=  20x    frame=33634 fps=480 q=-0.0 size=N/A time=00:23:22.81 bitrate=N/A speed=  20x    frame=33821 fps=479 q=-0.0 size=N/A time=00:23:30.61 bitrate=N/A speed=  20x    frame=34036 fps=478 q=-0.0 size=N/A time=00:23:39.58 bitrate=N/A speed=19.9x    frame=34256 fps=478 q=-0.0 size=N/A time=00:23:48.76 bitrate=N/A speed=19.9x    frame=34474 fps=477 q=-0.0 size=N/A time=00:23:57.85 bitrate=N/A speed=19.9x    frame=34672 fps=477 q=-0.0 size=N/A time=00:24:06.11 bitrate=N/A speed=19.9x    frame=34892 fps=476 q=-0.0 size=N/A time=00:24:15.28 bitrate=N/A speed=19.9x    [Parsed_psnr_10 @ 0000024c3d707200] PSNR y:48.736773 u:50.859990 v:50.230598 average:49.257324 min:42.296380 max:inf
[out#0/null @ 0000024c3da50640] video:15006KiB audio:273300KiB subtitle:0KiB other streams:0KiB global headers:0KiB muxing overhead: unknown
frame=34922 fps=476 q=-0.0 Lsize=N/A time=00:24:16.53 bitrate=N/A speed=19.9x    
